<?xml version="1.0" encoding="UTF-8" standalone="no"?>
<svg
   xmlns:dc="http://purl.org/dc/elements/1.1/"
   xmlns:cc="http://creativecommons.org/ns#"
   xmlns:rdf="http://www.w3.org/1999/02/22-rdf-syntax-ns#"
   xmlns:svg="http://www.w3.org/2000/svg"
   xmlns="http://www.w3.org/2000/svg"
   xmlns:sodipodi="http://sodipodi.sourceforge.net/DTD/sodipodi-0.dtd"
   xmlns:inkscape="http://www.inkscape.org/namespaces/inkscape"
   version="1.1"
   x="0px"
   y="0px"
   width="512"
   height="332"
   viewBox="0 0 512 332"
   xml:space="preserve"
   id="svg2"
   inkscape:version="0.48.5 r10040"
   sodipodi:docname="behance.svg"><metadata
     id="metadata13"><rdf:RDF><cc:Work
         rdf:about=""><dc:format>image/svg+xml</dc:format><dc:type
           rdf:resource="http://purl.org/dc/dcmitype/StillImage" /></cc:Work></rdf:RDF></metadata><defs
     id="defs11" /><sodipodi:namedview
     pagecolor="#ffffff"
     bordercolor="#666666"
     borderopacity="1"
     objecttolerance="10"
     gridtolerance="10"
     guidetolerance="10"
     inkscape:pageopacity="0"
     inkscape:pageshadow="2"
     inkscape:window-width="1364"
     inkscape:window-height="730"
     id="namedview9"
     showgrid="false"
     inkscape:zoom="1.3037281"
     inkscape:cx="257.07927"
     inkscape:cy="143.48091"
     inkscape:window-x="0"
     inkscape:window-y="18"
     inkscape:window-maximized="0"
     inkscape:current-layer="svg2" /><g
     id="7935ec95c421cee6d86eb22ecd116478"
     transform="translate(0,-86)"><g
       id="g5" /><path
       style="display:inline"
       d="m 206.729,238.87 c 0,0 48.358,-3.589 48.358,-60.296 0,-56.711 -39.563,-84.387 -89.678,-84.387 H 73.161 70.457 0.5 v 316.909 h 69.957 2.704 92.248 c 0,0 100.671,3.18 100.671,-93.537 0,0 4.389,-78.689 -59.351,-78.689 z m -53.19,-88.357 h 11.87 c 0,0 22.416,0 22.416,32.973 0,32.968 -13.183,37.749 -28.136,37.749 H 73.161 v -70.722 h 80.378 z m 7.21,204.257 H 73.161 v -84.69 h 92.248 c 0,0 33.41,-0.438 33.41,43.523 0,37.067 -24.954,40.887 -38.07,41.167 z M 400.342,174.817 c -121.873,0 -121.765,121.765 -121.765,121.765 0,0 -8.362,121.141 121.765,121.141 0,0 108.438,6.195 108.438,-84.271 h -55.767 c 0,0 1.86,34.068 -50.81,34.068 0,0 -55.777,3.738 -55.777,-55.135 h 164.213 c 0,0 17.97,-137.568 -110.297,-137.568 z m -54.529,95.263 c 0,0 6.809,-48.845 55.768,-48.845 48.949,0 48.336,48.845 48.336,48.845 H 345.813 z M 462.908,151.881 H 332.159 v -39.025 h 130.749 v 39.025 z"
       id="path7"
       inkscape:connector-curvature="0" /></g></svg>