<?xml version="1.0" encoding="UTF-8" standalone="no"?>
<svg
   xmlns:dc="http://purl.org/dc/elements/1.1/"
   xmlns:cc="http://creativecommons.org/ns#"
   xmlns:rdf="http://www.w3.org/1999/02/22-rdf-syntax-ns#"
   xmlns:svg="http://www.w3.org/2000/svg"
   xmlns="http://www.w3.org/2000/svg"
   xmlns:sodipodi="http://sodipodi.sourceforge.net/DTD/sodipodi-0.dtd"
   xmlns:inkscape="http://www.inkscape.org/namespaces/inkscape"
   height="700"
   width="578"
   id="svg2"
   version="1.1"
   inkscape:version="0.48.5 r10040"
   sodipodi:docname="github.svg">
  <metadata
     id="metadata10">
    <rdf:RDF>
      <cc:Work
         rdf:about="">
        <dc:format>image/svg+xml</dc:format>
        <dc:type
           rdf:resource="http://purl.org/dc/dcmitype/StillImage" />
        <dc:title />
      </cc:Work>
    </rdf:RDF>
  </metadata>
  <defs
     id="defs8" />
  <sodipodi:namedview
     pagecolor="#ffffff"
     bordercolor="#666666"
     borderopacity="1"
     objecttolerance="10"
     gridtolerance="10"
     guidetolerance="10"
     inkscape:pageopacity="0"
     inkscape:pageshadow="2"
     inkscape:window-width="1364"
     inkscape:window-height="730"
     id="namedview6"
     showgrid="false"
     inkscape:zoom="0.3337544"
     inkscape:cx="402.03457"
     inkscape:cy="628.20839"
     inkscape:window-x="0"
     inkscape:window-y="18"
     inkscape:window-maximized="0"
     inkscape:current-layer="svg2" />
  <path
     d="m 3.5422284,439.21647 c -2.60399998,-2.604 -2.60399998,-5.208 0,-7.812 5.208,-5.208 11.7179996,-7.161 19.5299996,-5.859 7.812,1.302 12.369,2.604 13.671,3.906 9.114,3.906 19.20433,12.69467 30.271,26.366 11.06667,13.67133 19.85533,23.111 26.366,28.319 31.248002,26.04 63.147002,27.993 95.697002,5.859 2.604,-9.114 6.83533,-16.926 12.694,-23.436 5.85867,-6.51 11.39233,-11.067 16.601,-13.671 5.20867,-2.604 14.32267,-6.51 27.342,-11.718 -42.966,-3.906 -77.79467,-11.39267 -104.486,-22.46 -26.69133,-11.06733 -47.849002,-25.06367 -63.473002,-41.989 -20.832,-23.436 -33.52667,-54.033 -38.084,-91.791 -4.55733,-37.758 -1.62767,-72.261 8.789,-103.509 7.812,-19.53 18.879,-37.107 33.201,-52.731 -10.416,-32.55 -8.463,-69.657 5.859,-111.321 41.664002,2.604 79.422002,16.926 113.274002,42.966 65.1,-16.926 132.804,-17.577 203.112,-1.953 9.114,-6.51 23.11033,-14.64767 41.989,-24.413 18.87867,-9.76533 42.64033,-15.299 71.285,-16.601 5.208,14.322 8.78867,31.248 10.742,50.778 1.95333,19.53 0.977,37.758 -2.929,54.684 29.946,31.248 45.57,72.912 46.872,124.992 0,41.664 -7.161,76.167 -21.483,103.509 -14.322,27.342 -39.711,50.127 -76.167,68.355 -24.738,11.718 -57.288,18.879 -97.65,21.483 18.228,9.114 31.57367,18.55367 40.037,28.319 8.46333,9.76533 13.997,25.06367 16.601,45.895 l 0,61.52 1.953,59.567 c 3.906,6.51 8.463,12.04367 13.671,16.601 5.208,4.55733 9.765,7.81233 13.671,9.765 3.906,1.95267 5.208,4.88233 3.906,8.789 -1.302,3.90667 -6.51,5.85967 -15.624,5.859 -22.134,0 -39.711,-7.812 -52.731,-23.436 -3.906,-6.51 -5.859,-14.322 -5.859,-23.436 l 0,-93.744 c 0,-10.416 -2.604,-17.90267 -7.812,-22.46 -5.208,-4.55733 -10.416,-7.487 -15.624,-8.789 l 0,123.039 c 0,22.134 2.604,36.456 7.812,42.966 5.208,6.51 8.463,13.02 9.765,19.53 1.302,1.302 0.32567,2.27833 -2.929,2.929 -3.25467,0.65067 -8.78833,-0.32567 -16.601,-2.929 -16.926,-3.906 -28.644,-12.69467 -35.154,-26.366 -6.51,-13.67133 -9.765,-28.319 -9.765,-43.943 l 0,-121.086 -25.389,0 0,121.086 c 0,15.624 -3.255,30.597 -9.765,44.919 -9.114,18.228 -26.04,27.993 -50.778,29.295 -3.906,-1.302 -5.859,-2.604 -5.859,-3.906 1.302,-1.302 5.208,-7.812 11.718,-19.53 1.302,-2.604 2.92967,-7.812 4.883,-15.624 1.95333,-7.812 2.92967,-16.926 2.929,-27.342 l 0,-123.039 c -5.208,1.302 -10.09067,4.23167 -14.648,8.789 -4.55733,4.55733 -6.836,12.044 -6.836,22.46 l 0,93.744 c 0,9.114 -1.953,16.926 -5.859,23.436 -11.718,15.624 -29.295,23.436 -52.731,23.436 -9.114,0 -14.322,-1.953 -15.624,-5.859 -1.302,-2.604 -0.97633,-4.88267 0.977,-6.836 1.95333,-1.95333 4.883,-4.232 8.789,-6.836 3.906,-2.604 6.51,-4.557 7.812,-5.859 5.208,-3.906 9.114,-9.114 11.718,-15.624 3.906,-5.208 4.88233,-18.879 2.929,-41.013 -1.95333,-22.134 -2.279,-36.456 -0.977,-42.966 -33.852,11.718 -68.355,5.859 -103.509002,-17.577 -10.416,-10.416 -20.832,-25.389 -31.248,-44.919 -7.812,-14.322 -23.436,-31.248 -46.8719996,-50.778 z"
     id="path4"
     inkscape:connector-curvature="0"
     sodipodi:nodetypes="csscsccsscscscccccscsccsccscccsssccssscsscscssccsccccsccssscscssccscccc" />
</svg>
