<?xml version="1.0" encoding="UTF-8" standalone="no"?>
<!-- Generator: Adobe Illustrator 16.2.1, SVG Export Plug-In . SVG Version: 6.00 Build 0)  -->

<svg
   xmlns:dc="http://purl.org/dc/elements/1.1/"
   xmlns:cc="http://creativecommons.org/ns#"
   xmlns:rdf="http://www.w3.org/1999/02/22-rdf-syntax-ns#"
   xmlns:svg="http://www.w3.org/2000/svg"
   xmlns="http://www.w3.org/2000/svg"
   xmlns:sodipodi="http://sodipodi.sourceforge.net/DTD/sodipodi-0.dtd"
   xmlns:inkscape="http://www.inkscape.org/namespaces/inkscape"
   version="1.1"
   id="Layer_1"
   x="0px"
   y="0px"
   width="464"
   height="510"
   viewBox="0 0 464 510"
   xml:space="preserve"
   inkscape:version="0.48.5 r10040"
   sodipodi:docname="linkedin.svg"><metadata
     id="metadata19"><rdf:RDF><cc:Work
         rdf:about=""><dc:format>image/svg+xml</dc:format><dc:type
           rdf:resource="http://purl.org/dc/dcmitype/StillImage" /><dc:title /></cc:Work></rdf:RDF></metadata><defs
     id="defs17" /><sodipodi:namedview
     pagecolor="#ffffff"
     bordercolor="#666666"
     borderopacity="1"
     objecttolerance="10"
     gridtolerance="10"
     guidetolerance="10"
     inkscape:pageopacity="0"
     inkscape:pageshadow="2"
     inkscape:window-width="1364"
     inkscape:window-height="730"
     id="namedview15"
     showgrid="false"
     inkscape:zoom="0.4609375"
     inkscape:cx="256"
     inkscape:cy="256"
     inkscape:window-x="0"
     inkscape:window-y="18"
     inkscape:window-maximized="0"
     inkscape:current-layer="g5" /><style
     type="text/css"
     id="style3">
	.st0{fill-rule:evenodd;clip-rule:evenodd;}
</style><g
     id="g5"
     transform="translate(0,-2)"><g
       id="g7"
       transform="matrix(1.7539427,0,0,1.9576271,-220.39538,-241.8983)"><path
         class="st0"
         d="M 182.8,384 V 212.9 H 127.9 V 384 h 54.9 l 0,0 z M 157.4,187 c 18.3,0 29.7,-13.1 29.7,-29.5 -0.3,-16.7 -11.4,-29.5 -29.4,-29.5 -18,0 -29.7,12.8 -29.7,29.5 0,16.4 11.4,29.5 29,29.5 h 0.4 l 0,0 z"
         id="path9"
         inkscape:connector-curvature="0"
         style="fill-rule:evenodd" /><path
         class="st0"
         d="M 320.6,209 C 291.5,209 279,225.4 271,236.8 V 213 h -55 v 171 h 55 v -97.4 c 0,-5 0.4,-10 1.9,-13.5 4,-10 13,-20.3 28.2,-20.3 19.9,0 27.9,15.3 27.9,37.7 V 384 h 55 V 284.1 C 384,232.8 356.8,209 320.6,209 z"
         id="path11"
         inkscape:connector-curvature="0"
         style="fill-rule:evenodd" /></g></g></svg>